<svg
   width="156mm"
   height="100.58333mm"
   viewBox="0 0 156 100.58333"
   version="1.1"
   id="svg1"
   xmlns="http://www.w3.org/2000/svg"
   xmlns:svg="http://www.w3.org/2000/svg">
  <defs
     id="defs1" />
  <g
     id="layer1">
    <g
       id="g1">
      <path
         style="fill:#ffffff;fill-opacity:1;stroke-width:0.264583"
         id="rect1"
         width="30"
         height="30"
         x="0"
         y="-2.220446e-16"
         d="M 0,0 H 30 V 30 H 0 Z m 35.291667,0 h 30 v 30 h -30 z M 70.583333,0 H 100.58333 V 30 H 70.583333 Z M 0,35.291667 h 30 v 30 H 0 Z m 35.291667,0 h 30 v 30 h -30 z m 35.291666,0 h 29.999997 v 30 H 70.583333 Z M 0,70.583333 H 30 V 100.58333 H 0 Z m 35.291667,0 h 30 v 29.999997 h -30 z m 35.291666,0 H 100.58333 V 100.58333 H 70.583333 Z" />
    </g>
    <g
       id="g2"
       transform="translate(-2.304512,0.92857075)">
      <path
         style="fill:#ffffff;fill-opacity:1;stroke-width:0.264583"
         id="rect2"
         width="25"
         height="25"
         x="108.30451"
         y="7.0714293"
         d="m 108.30451,7.0714293 h 25 V 32.071429 h -25 z m 0,30.2916667 h 25 v 25 h -25 z m 0,30.291667 h 25 v 25 h -25 z" />
    </g>
    <g
       id="g3"
       transform="translate(-12.5,-47.142857)">
      <path
         style="fill:#ffffff;fill-opacity:1;stroke-width:0.264583"
         id="rect3"
         width="20"
         height="20"
         x="148.5"
         y="63.642857"
         d="m 148.5,63.642857 h 20 v 20 h -20 z m 0,25.291666 h 20 v 19.999997 h -20 z m 0,25.291667 h 20 v 20 h -20 z" />
    </g>
  </g>
</svg>
