<svg width="156mm" height="380.157" viewBox="0 0 156 100.583" xmlns="http://www.w3.org/2000/svg"><path style="fill-opacity:1;stroke-width:.264583" d="M0 0h30v30H0zm35.292 0h30v30h-30zm35.291 0h30v30h-30zM0 35.292h30v30H0zm35.292 0h30v30h-30zm35.291 0h30v30h-30zM0 70.583h30v30H0zm35.292 0h30v30h-30zm35.291 0h30v30h-30z"/><path style="fill-opacity:1;stroke-width:.264583" d="M108.305 7.071h25v25h-25zm0 30.292h25v25h-25zm0 30.292h25v25h-25z" transform="translate(-2.305 .929)"/><path style="fill-opacity:1;stroke-width:.264583" d="M148.5 63.643h20v20h-20zm0 25.292h20v20h-20zm0 25.291h20v20h-20z" transform="translate(-12.5 -47.143)"/></svg>